<mxfile host="app.diagrams.net" agent="Mozilla/5.0 (Windows NT 10.0; Win64; x64) AppleWebKit/537.36 (KHTML, like Gecko) Chrome/130.0.0.0 Safari/537.36 Edg/130.0.0.0" version="24.8.4">
  <diagram id="C5RBs43oDa-KdzZeNtuy" name="Page-1">
    <mxGraphModel dx="1798" dy="2191" grid="1" gridSize="10" guides="1" tooltips="1" connect="1" arrows="1" fold="1" page="1" pageScale="1" pageWidth="827" pageHeight="1169" math="0" shadow="0">
      <root>
        <mxCell id="WIyWlLk6GJQsqaUBKTNV-0" />
        <mxCell id="WIyWlLk6GJQsqaUBKTNV-1" parent="WIyWlLk6GJQsqaUBKTNV-0" />
        <mxCell id="GC1noQBbDsBjb6JdeGm3-1" value="Usuario" style="swimlane;fontStyle=1;align=center;verticalAlign=top;childLayout=stackLayout;horizontal=1;startSize=26;horizontalStack=0;resizeParent=1;resizeParentMax=0;resizeLast=0;collapsible=1;marginBottom=0;whiteSpace=wrap;html=1;fillColor=#dae8fc;strokeColor=#6c8ebf;" parent="WIyWlLk6GJQsqaUBKTNV-1" vertex="1">
          <mxGeometry x="620" y="-10" width="160" height="130" as="geometry" />
        </mxCell>
        <mxCell id="GC1noQBbDsBjb6JdeGm3-2" value="+ nombre: Str&lt;br&gt;+ contraseÃ±a: Int" style="text;strokeColor=none;fillColor=none;align=left;verticalAlign=top;spacingLeft=4;spacingRight=4;overflow=hidden;rotatable=0;points=[[0,0.5],[1,0.5]];portConstraint=eastwest;whiteSpace=wrap;html=1;" parent="GC1noQBbDsBjb6JdeGm3-1" vertex="1">
          <mxGeometry y="26" width="160" height="54" as="geometry" />
        </mxCell>
        <mxCell id="GC1noQBbDsBjb6JdeGm3-3" value="" style="line;strokeWidth=1;fillColor=none;align=left;verticalAlign=middle;spacingTop=-1;spacingLeft=3;spacingRight=3;rotatable=0;labelPosition=right;points=[];portConstraint=eastwest;strokeColor=inherit;" parent="GC1noQBbDsBjb6JdeGm3-1" vertex="1">
          <mxGeometry y="80" width="160" height="20" as="geometry" />
        </mxCell>
        <mxCell id="AwK1PLA9xHQt3RoQHDYn-5" value="+registrar_pedido()" style="text;html=1;align=left;verticalAlign=middle;resizable=0;points=[];autosize=1;strokeColor=none;fillColor=none;" parent="GC1noQBbDsBjb6JdeGm3-1" vertex="1">
          <mxGeometry y="100" width="160" height="30" as="geometry" />
        </mxCell>
        <mxCell id="_q9LBVFp5hoLvUS48kMk-9" style="edgeStyle=orthogonalEdgeStyle;rounded=0;orthogonalLoop=1;jettySize=auto;html=1;endArrow=none;endFill=0;startArrow=diamond;startFill=0;strokeWidth=1;targetPerimeterSpacing=0;endSize=6;sourcePerimeterSpacing=0;" parent="WIyWlLk6GJQsqaUBKTNV-1" source="GC1noQBbDsBjb6JdeGm3-9" target="GC1noQBbDsBjb6JdeGm3-33" edge="1">
          <mxGeometry relative="1" as="geometry">
            <Array as="points">
              <mxPoint x="700" y="430" />
              <mxPoint x="905" y="430" />
            </Array>
          </mxGeometry>
        </mxCell>
        <mxCell id="AwK1PLA9xHQt3RoQHDYn-2" style="edgeStyle=orthogonalEdgeStyle;rounded=0;orthogonalLoop=1;jettySize=auto;html=1;entryX=0;entryY=0.25;entryDx=0;entryDy=0;dashed=1;endArrow=open;endFill=0;" parent="WIyWlLk6GJQsqaUBKTNV-1" source="GC1noQBbDsBjb6JdeGm3-9" target="_q9LBVFp5hoLvUS48kMk-25" edge="1">
          <mxGeometry relative="1" as="geometry">
            <Array as="points">
              <mxPoint x="200" y="275" />
              <mxPoint x="200" y="1023" />
            </Array>
          </mxGeometry>
        </mxCell>
        <mxCell id="GC1noQBbDsBjb6JdeGm3-9" value="Mesero" style="swimlane;fontStyle=1;align=center;verticalAlign=top;childLayout=stackLayout;horizontal=1;startSize=26;horizontalStack=0;resizeParent=1;resizeParentMax=0;resizeLast=0;collapsible=1;marginBottom=0;whiteSpace=wrap;html=1;fillColor=#d5e8d4;strokeColor=#82b366;" parent="WIyWlLk6GJQsqaUBKTNV-1" vertex="1">
          <mxGeometry x="620" y="190" width="160" height="170" as="geometry" />
        </mxCell>
        <mxCell id="GC1noQBbDsBjb6JdeGm3-10" value="+pedidos_atendidos:List&amp;lt;Pedido&amp;gt;&lt;div&gt;+propinas:int&lt;/div&gt;" style="text;strokeColor=none;fillColor=none;align=left;verticalAlign=top;spacingLeft=4;spacingRight=4;overflow=hidden;rotatable=0;points=[[0,0.5],[1,0.5]];portConstraint=eastwest;whiteSpace=wrap;html=1;" parent="GC1noQBbDsBjb6JdeGm3-9" vertex="1">
          <mxGeometry y="26" width="160" height="64" as="geometry" />
        </mxCell>
        <mxCell id="GC1noQBbDsBjb6JdeGm3-11" value="" style="line;strokeWidth=1;fillColor=none;align=left;verticalAlign=middle;spacingTop=-1;spacingLeft=3;spacingRight=3;rotatable=0;labelPosition=right;points=[];portConstraint=eastwest;strokeColor=inherit;" parent="GC1noQBbDsBjb6JdeGm3-9" vertex="1">
          <mxGeometry y="90" width="160" height="8" as="geometry" />
        </mxCell>
        <mxCell id="GC1noQBbDsBjb6JdeGm3-12" value="&lt;br&gt;&lt;div&gt;+liquidar_factura()&lt;/div&gt;&lt;div&gt;+ver_pedido()&lt;/div&gt;" style="text;strokeColor=none;fillColor=none;align=left;verticalAlign=top;spacingLeft=4;spacingRight=4;overflow=hidden;rotatable=0;points=[[0,0.5],[1,0.5]];portConstraint=eastwest;whiteSpace=wrap;html=1;" parent="GC1noQBbDsBjb6JdeGm3-9" vertex="1">
          <mxGeometry y="98" width="160" height="72" as="geometry" />
        </mxCell>
        <mxCell id="GC1noQBbDsBjb6JdeGm3-28" value="" style="edgeStyle=orthogonalEdgeStyle;rounded=0;orthogonalLoop=1;jettySize=auto;html=1;exitX=0.5;exitY=0;exitDx=0;exitDy=0;endArrow=blockThin;endFill=0;" parent="WIyWlLk6GJQsqaUBKTNV-1" source="GC1noQBbDsBjb6JdeGm3-9" target="GC1noQBbDsBjb6JdeGm3-1" edge="1">
          <mxGeometry relative="1" as="geometry">
            <mxPoint x="190" y="280" as="sourcePoint" />
            <mxPoint x="423" y="190" as="targetPoint" />
          </mxGeometry>
        </mxCell>
        <mxCell id="GC1noQBbDsBjb6JdeGm3-33" value="Mesa" style="swimlane;fontStyle=1;align=center;verticalAlign=top;childLayout=stackLayout;horizontal=1;startSize=26;horizontalStack=0;resizeParent=1;resizeParentMax=0;resizeLast=0;collapsible=1;marginBottom=0;whiteSpace=wrap;html=1;fillColor=#dae8fc;strokeColor=#6c8ebf;" parent="WIyWlLk6GJQsqaUBKTNV-1" vertex="1">
          <mxGeometry x="820" y="510" width="170" height="130" as="geometry" />
        </mxCell>
        <mxCell id="GC1noQBbDsBjb6JdeGm3-34" value="+id:int&lt;div&gt;+estado:str&lt;/div&gt;&lt;div&gt;+pedidos:list&amp;lt;Pedido&amp;gt;&lt;/div&gt;" style="text;strokeColor=none;fillColor=none;align=left;verticalAlign=top;spacingLeft=4;spacingRight=4;overflow=hidden;rotatable=0;points=[[0,0.5],[1,0.5]];portConstraint=eastwest;whiteSpace=wrap;html=1;" parent="GC1noQBbDsBjb6JdeGm3-33" vertex="1">
          <mxGeometry y="26" width="170" height="64" as="geometry" />
        </mxCell>
        <mxCell id="GC1noQBbDsBjb6JdeGm3-35" value="" style="line;strokeWidth=1;fillColor=none;align=left;verticalAlign=middle;spacingTop=-1;spacingLeft=3;spacingRight=3;rotatable=0;labelPosition=right;points=[];portConstraint=eastwest;strokeColor=inherit;" parent="GC1noQBbDsBjb6JdeGm3-33" vertex="1">
          <mxGeometry y="90" width="170" height="10" as="geometry" />
        </mxCell>
        <mxCell id="aXFTtsicoxvOmSbVlnEq-12" style="edgeStyle=orthogonalEdgeStyle;rounded=0;orthogonalLoop=1;jettySize=auto;html=1;exitX=1;exitY=0.5;exitDx=0;exitDy=0;" parent="GC1noQBbDsBjb6JdeGm3-33" source="GC1noQBbDsBjb6JdeGm3-34" target="GC1noQBbDsBjb6JdeGm3-34" edge="1">
          <mxGeometry relative="1" as="geometry" />
        </mxCell>
        <mxCell id="D_vmMvLf3otyweFtX5BO-4" value="&lt;div style=&quot;&quot;&gt;+cambiar_estado()&lt;/div&gt;" style="text;html=1;align=left;verticalAlign=middle;whiteSpace=wrap;rounded=0;" parent="GC1noQBbDsBjb6JdeGm3-33" vertex="1">
          <mxGeometry y="100" width="170" height="30" as="geometry" />
        </mxCell>
        <mxCell id="GC1noQBbDsBjb6JdeGm3-37" value="Factura" style="swimlane;fontStyle=1;align=center;verticalAlign=top;childLayout=stackLayout;horizontal=1;startSize=26;horizontalStack=0;resizeParent=1;resizeParentMax=0;resizeLast=0;collapsible=1;marginBottom=0;whiteSpace=wrap;html=1;fillColor=#dae8fc;strokeColor=#6c8ebf;" parent="WIyWlLk6GJQsqaUBKTNV-1" vertex="1">
          <mxGeometry x="280" y="440" width="190" height="130" as="geometry">
            <mxRectangle x="460" y="380" width="80" height="30" as="alternateBounds" />
          </mxGeometry>
        </mxCell>
        <mxCell id="GC1noQBbDsBjb6JdeGm3-38" value="+pedido:Pedido&lt;div&gt;+propina:int&lt;/div&gt;&lt;div&gt;&lt;br&gt;&lt;/div&gt;" style="text;strokeColor=none;fillColor=none;align=left;verticalAlign=top;spacingLeft=4;spacingRight=4;overflow=hidden;rotatable=0;points=[[0,0.5],[1,0.5]];portConstraint=eastwest;whiteSpace=wrap;html=1;" parent="GC1noQBbDsBjb6JdeGm3-37" vertex="1">
          <mxGeometry y="26" width="190" height="34" as="geometry" />
        </mxCell>
        <mxCell id="GC1noQBbDsBjb6JdeGm3-39" value="" style="line;strokeWidth=1;fillColor=none;align=left;verticalAlign=middle;spacingTop=-1;spacingLeft=3;spacingRight=3;rotatable=0;labelPosition=right;points=[];portConstraint=eastwest;strokeColor=inherit;" parent="GC1noQBbDsBjb6JdeGm3-37" vertex="1">
          <mxGeometry y="60" width="190" height="10" as="geometry" />
        </mxCell>
        <mxCell id="UrpaTmzszv_Nnxscq-q1-3" value="+calcular_total()&lt;div&gt;+calcuar_propina()&lt;/div&gt;&lt;div&gt;+liquidar()&lt;/div&gt;" style="text;html=1;align=left;verticalAlign=middle;resizable=0;points=[];autosize=1;strokeColor=none;fillColor=none;" parent="GC1noQBbDsBjb6JdeGm3-37" vertex="1">
          <mxGeometry y="70" width="190" height="60" as="geometry" />
        </mxCell>
        <mxCell id="K2z4lvXx12BIsaSF6ZAN-5" style="edgeStyle=orthogonalEdgeStyle;rounded=0;orthogonalLoop=1;jettySize=auto;html=1;exitX=0.5;exitY=0;exitDx=0;exitDy=0;endArrow=block;endFill=0;" parent="WIyWlLk6GJQsqaUBKTNV-1" source="GC1noQBbDsBjb6JdeGm3-43" target="GC1noQBbDsBjb6JdeGm3-1" edge="1">
          <mxGeometry relative="1" as="geometry">
            <Array as="points">
              <mxPoint x="960" y="140" />
              <mxPoint x="700" y="140" />
            </Array>
          </mxGeometry>
        </mxCell>
        <mxCell id="AwK1PLA9xHQt3RoQHDYn-3" style="edgeStyle=orthogonalEdgeStyle;rounded=0;orthogonalLoop=1;jettySize=auto;html=1;entryX=1;entryY=0.25;entryDx=0;entryDy=0;dashed=1;endArrow=open;endFill=0;" parent="WIyWlLk6GJQsqaUBKTNV-1" source="GC1noQBbDsBjb6JdeGm3-43" target="_q9LBVFp5hoLvUS48kMk-20" edge="1">
          <mxGeometry relative="1" as="geometry">
            <Array as="points">
              <mxPoint x="1090" y="848" />
            </Array>
          </mxGeometry>
        </mxCell>
        <mxCell id="GC1noQBbDsBjb6JdeGm3-43" value="Administrador" style="swimlane;fontStyle=1;align=center;verticalAlign=top;childLayout=stackLayout;horizontal=1;startSize=26;horizontalStack=0;resizeParent=1;resizeParentMax=0;resizeLast=0;collapsible=1;marginBottom=0;whiteSpace=wrap;html=1;fillColor=#d5e8d4;strokeColor=#82b366;" parent="WIyWlLk6GJQsqaUBKTNV-1" vertex="1">
          <mxGeometry x="860" y="191" width="280" height="124" as="geometry" />
        </mxCell>
        <mxCell id="GC1noQBbDsBjb6JdeGm3-45" value="" style="line;strokeWidth=1;fillColor=none;align=left;verticalAlign=middle;spacingTop=-1;spacingLeft=3;spacingRight=3;rotatable=0;labelPosition=right;points=[];portConstraint=eastwest;strokeColor=inherit;" parent="GC1noQBbDsBjb6JdeGm3-43" vertex="1">
          <mxGeometry y="26" width="280" height="8" as="geometry" />
        </mxCell>
        <mxCell id="D_vmMvLf3otyweFtX5BO-21" value="&lt;div&gt;+ver_mesas()&lt;/div&gt;&lt;div&gt;+ver_propinas_meseros()&lt;/div&gt;&lt;div&gt;+ver_numero_de_atendidos()&lt;/div&gt;&lt;div&gt;+ver_gastos_mesas()&lt;/div&gt;" style="text;strokeColor=none;fillColor=none;align=left;verticalAlign=top;spacingLeft=4;spacingRight=4;overflow=hidden;rotatable=0;points=[[0,0.5],[1,0.5]];portConstraint=eastwest;whiteSpace=wrap;html=1;" parent="GC1noQBbDsBjb6JdeGm3-43" vertex="1">
          <mxGeometry y="34" width="280" height="90" as="geometry" />
        </mxCell>
        <mxCell id="aXFTtsicoxvOmSbVlnEq-7" value="Pedido" style="swimlane;fontStyle=1;align=center;verticalAlign=top;childLayout=stackLayout;horizontal=1;startSize=26;horizontalStack=0;resizeParent=1;resizeParentMax=0;resizeLast=0;collapsible=1;marginBottom=0;whiteSpace=wrap;html=1;fillColor=#dae8fc;strokeColor=#6c8ebf;" parent="WIyWlLk6GJQsqaUBKTNV-1" vertex="1">
          <mxGeometry x="560" y="770" width="160" height="172" as="geometry" />
        </mxCell>
        <mxCell id="aXFTtsicoxvOmSbVlnEq-8" value="+productos:dict{Producto, int}&lt;div&gt;+estado:str&lt;/div&gt;&lt;div&gt;+id_mesa:int&lt;/div&gt;&lt;div&gt;+id_pedido():int&lt;/div&gt;&lt;div&gt;&lt;br&gt;&lt;/div&gt;" style="text;strokeColor=none;fillColor=none;align=left;verticalAlign=top;spacingLeft=4;spacingRight=4;overflow=hidden;rotatable=0;points=[[0,0.5],[1,0.5]];portConstraint=eastwest;whiteSpace=wrap;html=1;" parent="aXFTtsicoxvOmSbVlnEq-7" vertex="1">
          <mxGeometry y="26" width="160" height="84" as="geometry" />
        </mxCell>
        <mxCell id="aXFTtsicoxvOmSbVlnEq-9" value="" style="line;strokeWidth=1;fillColor=none;align=left;verticalAlign=middle;spacingTop=-1;spacingLeft=3;spacingRight=3;rotatable=0;labelPosition=right;points=[];portConstraint=eastwest;strokeColor=inherit;" parent="aXFTtsicoxvOmSbVlnEq-7" vertex="1">
          <mxGeometry y="110" width="160" height="8" as="geometry" />
        </mxCell>
        <mxCell id="KiSXMFfGmew6p7GJJQjr-1" value="&amp;nbsp;" style="text;strokeColor=none;fillColor=none;align=left;verticalAlign=top;spacingLeft=4;spacingRight=4;overflow=hidden;rotatable=0;points=[[0,0.5],[1,0.5]];portConstraint=eastwest;whiteSpace=wrap;html=1;" parent="aXFTtsicoxvOmSbVlnEq-7" vertex="1">
          <mxGeometry y="118" width="160" height="8" as="geometry" />
        </mxCell>
        <mxCell id="014ycoSJVARVpkN1K0rT-15" value="&lt;div&gt;+agregar_producto()&lt;/div&gt;&lt;div&gt;+calcular_total()&lt;/div&gt;" style="text;strokeColor=none;fillColor=none;align=left;verticalAlign=top;spacingLeft=4;spacingRight=4;overflow=hidden;rotatable=0;points=[[0,0.5],[1,0.5]];portConstraint=eastwest;whiteSpace=wrap;html=1;" parent="aXFTtsicoxvOmSbVlnEq-7" vertex="1">
          <mxGeometry y="126" width="160" height="46" as="geometry" />
        </mxCell>
        <mxCell id="aJq0xD9XhWWVZbfKdHQB-1" style="edgeStyle=orthogonalEdgeStyle;rounded=0;orthogonalLoop=1;jettySize=auto;html=1;dashed=1;endArrow=open;endFill=0;entryX=0.459;entryY=0.971;entryDx=0;entryDy=0;entryPerimeter=0;exitX=0.363;exitY=0.02;exitDx=0;exitDy=0;exitPerimeter=0;" parent="WIyWlLk6GJQsqaUBKTNV-1" source="_q9LBVFp5hoLvUS48kMk-16" target="D_vmMvLf3otyweFtX5BO-4" edge="1">
          <mxGeometry relative="1" as="geometry">
            <mxPoint x="780" y="1008" as="targetPoint" />
            <mxPoint x="901" y="760" as="sourcePoint" />
          </mxGeometry>
        </mxCell>
        <mxCell id="_q9LBVFp5hoLvUS48kMk-7" style="edgeStyle=orthogonalEdgeStyle;rounded=0;orthogonalLoop=1;jettySize=auto;html=1;entryX=0;entryY=0.5;entryDx=0;entryDy=0;dashed=1;endArrow=open;endFill=0;exitX=0.414;exitY=-0.006;exitDx=0;exitDy=0;exitPerimeter=0;" parent="WIyWlLk6GJQsqaUBKTNV-1" source="_q9LBVFp5hoLvUS48kMk-21" target="aXFTtsicoxvOmSbVlnEq-8" edge="1">
          <mxGeometry relative="1" as="geometry">
            <mxPoint x="440" y="962" as="sourcePoint" />
          </mxGeometry>
        </mxCell>
        <mxCell id="Yt6F-12n9AbqHnniY_Dx-0" value="Gestion_Usuario" style="swimlane;fontStyle=1;align=center;verticalAlign=top;childLayout=stackLayout;horizontal=1;startSize=26;horizontalStack=0;resizeParent=1;resizeParentMax=0;resizeLast=0;collapsible=1;marginBottom=0;whiteSpace=wrap;html=1;fillColor=#ffe6cc;strokeColor=#d79b00;" parent="WIyWlLk6GJQsqaUBKTNV-1" vertex="1">
          <mxGeometry x="1170" y="8" width="160" height="120" as="geometry" />
        </mxCell>
        <mxCell id="U9fKYfC1i6cyhhxphxaI-0" value="+Usuario:Usuario" style="text;strokeColor=none;fillColor=none;align=left;verticalAlign=top;spacingLeft=4;spacingRight=4;overflow=hidden;rotatable=0;points=[[0,0.5],[1,0.5]];portConstraint=eastwest;whiteSpace=wrap;html=1;" parent="Yt6F-12n9AbqHnniY_Dx-0" vertex="1">
          <mxGeometry y="26" width="160" height="32" as="geometry" />
        </mxCell>
        <mxCell id="Yt6F-12n9AbqHnniY_Dx-2" value="" style="line;strokeWidth=1;fillColor=none;align=left;verticalAlign=middle;spacingTop=-1;spacingLeft=3;spacingRight=3;rotatable=0;labelPosition=right;points=[];portConstraint=eastwest;strokeColor=inherit;" parent="Yt6F-12n9AbqHnniY_Dx-0" vertex="1">
          <mxGeometry y="58" width="160" height="8" as="geometry" />
        </mxCell>
        <mxCell id="Yt6F-12n9AbqHnniY_Dx-3" value="+ gestionar_tipo_usuario()&lt;div&gt;+validar_usuario()&lt;/div&gt;&lt;div&gt;+desplegar_menu()&lt;/div&gt;" style="text;strokeColor=none;fillColor=none;align=left;verticalAlign=top;spacingLeft=4;spacingRight=4;overflow=hidden;rotatable=0;points=[[0,0.5],[1,0.5]];portConstraint=eastwest;whiteSpace=wrap;html=1;" parent="Yt6F-12n9AbqHnniY_Dx-0" vertex="1">
          <mxGeometry y="66" width="160" height="54" as="geometry" />
        </mxCell>
        <mxCell id="Yt6F-12n9AbqHnniY_Dx-11" style="edgeStyle=orthogonalEdgeStyle;rounded=0;orthogonalLoop=1;jettySize=auto;html=1;endArrow=openThin;endFill=0;dashed=1;entryX=1;entryY=0.352;entryDx=0;entryDy=0;entryPerimeter=0;" parent="WIyWlLk6GJQsqaUBKTNV-1" source="Yt6F-12n9AbqHnniY_Dx-0" target="GC1noQBbDsBjb6JdeGm3-2" edge="1">
          <mxGeometry relative="1" as="geometry">
            <mxPoint x="1241" y="54" as="sourcePoint" />
            <mxPoint x="1070" y="54" as="targetPoint" />
          </mxGeometry>
        </mxCell>
        <mxCell id="KiSXMFfGmew6p7GJJQjr-6" style="edgeStyle=orthogonalEdgeStyle;rounded=0;orthogonalLoop=1;jettySize=auto;html=1;dashed=1;endArrow=open;endFill=0;exitX=0;exitY=0.5;exitDx=0;exitDy=0;" parent="WIyWlLk6GJQsqaUBKTNV-1" source="KiSXMFfGmew6p7GJJQjr-3" target="Yt6F-12n9AbqHnniY_Dx-0" edge="1">
          <mxGeometry relative="1" as="geometry">
            <mxPoint x="1330" y="280" as="sourcePoint" />
            <Array as="points">
              <mxPoint x="1330" y="282" />
              <mxPoint x="1330" y="270" />
              <mxPoint x="1250" y="270" />
            </Array>
          </mxGeometry>
        </mxCell>
        <mxCell id="014ycoSJVARVpkN1K0rT-4" style="edgeStyle=orthogonalEdgeStyle;rounded=0;orthogonalLoop=1;jettySize=auto;html=1;dashed=1;endArrow=openThin;endFill=0;entryX=0.413;entryY=1.01;entryDx=0;entryDy=0;entryPerimeter=0;" parent="WIyWlLk6GJQsqaUBKTNV-1" source="KiSXMFfGmew6p7GJJQjr-2" target="_q9LBVFp5hoLvUS48kMk-20" edge="1">
          <mxGeometry relative="1" as="geometry">
            <Array as="points">
              <mxPoint x="1530" y="1104" />
              <mxPoint x="897" y="1104" />
            </Array>
            <mxPoint x="900.0000000000002" y="874" as="targetPoint" />
          </mxGeometry>
        </mxCell>
        <mxCell id="KiSXMFfGmew6p7GJJQjr-2" value="Consola" style="swimlane;fontStyle=1;align=center;verticalAlign=top;childLayout=stackLayout;horizontal=1;startSize=26;horizontalStack=0;resizeParent=1;resizeParentMax=0;resizeLast=0;collapsible=1;marginBottom=0;whiteSpace=wrap;html=1;fillColor=#e1d5e7;strokeColor=#9673a6;" parent="WIyWlLk6GJQsqaUBKTNV-1" vertex="1">
          <mxGeometry x="1340" y="243" width="220" height="60" as="geometry" />
        </mxCell>
        <mxCell id="KiSXMFfGmew6p7GJJQjr-3" value="+usuario: Usuario" style="text;strokeColor=none;fillColor=none;align=left;verticalAlign=top;spacingLeft=4;spacingRight=4;overflow=hidden;rotatable=0;points=[[0,0.5],[1,0.5]];portConstraint=eastwest;whiteSpace=wrap;html=1;" parent="KiSXMFfGmew6p7GJJQjr-2" vertex="1">
          <mxGeometry y="26" width="220" height="26" as="geometry" />
        </mxCell>
        <mxCell id="KiSXMFfGmew6p7GJJQjr-4" value="" style="line;strokeWidth=1;fillColor=none;align=left;verticalAlign=middle;spacingTop=-1;spacingLeft=3;spacingRight=3;rotatable=0;labelPosition=right;points=[];portConstraint=eastwest;strokeColor=inherit;" parent="KiSXMFfGmew6p7GJJQjr-2" vertex="1">
          <mxGeometry y="52" width="220" height="8" as="geometry" />
        </mxCell>
        <mxCell id="014ycoSJVARVpkN1K0rT-5" style="edgeStyle=orthogonalEdgeStyle;rounded=0;orthogonalLoop=1;jettySize=auto;html=1;dashed=1;endArrow=openThin;endFill=0;entryX=0.5;entryY=1;entryDx=0;entryDy=0;" parent="WIyWlLk6GJQsqaUBKTNV-1" source="KiSXMFfGmew6p7GJJQjr-2" target="_q9LBVFp5hoLvUS48kMk-25" edge="1">
          <mxGeometry relative="1" as="geometry">
            <Array as="points">
              <mxPoint x="1440" y="1320" />
              <mxPoint x="455" y="1320" />
            </Array>
            <mxPoint x="470" y="1002" as="targetPoint" />
          </mxGeometry>
        </mxCell>
        <mxCell id="_q9LBVFp5hoLvUS48kMk-1" value="Producto&lt;div&gt;&lt;br&gt;&lt;/div&gt;" style="swimlane;fontStyle=1;align=center;verticalAlign=top;childLayout=stackLayout;horizontal=1;startSize=26;horizontalStack=0;resizeParent=1;resizeParentMax=0;resizeLast=0;collapsible=1;marginBottom=0;whiteSpace=wrap;html=1;fillColor=#dae8fc;strokeColor=#6c8ebf;" parent="WIyWlLk6GJQsqaUBKTNV-1" vertex="1">
          <mxGeometry x="280" y="650" width="170" height="110" as="geometry" />
        </mxCell>
        <mxCell id="_q9LBVFp5hoLvUS48kMk-2" value="+nombre:str&lt;div&gt;+precio:int&lt;/div&gt;" style="text;strokeColor=none;fillColor=none;align=left;verticalAlign=top;spacingLeft=4;spacingRight=4;overflow=hidden;rotatable=0;points=[[0,0.5],[1,0.5]];portConstraint=eastwest;whiteSpace=wrap;html=1;" parent="_q9LBVFp5hoLvUS48kMk-1" vertex="1">
          <mxGeometry y="26" width="170" height="44" as="geometry" />
        </mxCell>
        <mxCell id="_q9LBVFp5hoLvUS48kMk-3" value="" style="line;strokeWidth=1;fillColor=none;align=left;verticalAlign=middle;spacingTop=-1;spacingLeft=3;spacingRight=3;rotatable=0;labelPosition=right;points=[];portConstraint=eastwest;strokeColor=inherit;" parent="_q9LBVFp5hoLvUS48kMk-1" vertex="1">
          <mxGeometry y="70" width="170" height="10" as="geometry" />
        </mxCell>
        <mxCell id="_q9LBVFp5hoLvUS48kMk-4" style="edgeStyle=orthogonalEdgeStyle;rounded=0;orthogonalLoop=1;jettySize=auto;html=1;exitX=1;exitY=0.5;exitDx=0;exitDy=0;" parent="_q9LBVFp5hoLvUS48kMk-1" source="_q9LBVFp5hoLvUS48kMk-2" target="_q9LBVFp5hoLvUS48kMk-2" edge="1">
          <mxGeometry relative="1" as="geometry" />
        </mxCell>
        <mxCell id="_q9LBVFp5hoLvUS48kMk-5" value="&lt;div style=&quot;&quot;&gt;+obtener_precio()&lt;/div&gt;" style="text;html=1;align=left;verticalAlign=middle;whiteSpace=wrap;rounded=0;" parent="_q9LBVFp5hoLvUS48kMk-1" vertex="1">
          <mxGeometry y="80" width="170" height="30" as="geometry" />
        </mxCell>
        <mxCell id="_q9LBVFp5hoLvUS48kMk-11" style="edgeStyle=orthogonalEdgeStyle;rounded=0;orthogonalLoop=1;jettySize=auto;html=1;entryX=0.213;entryY=0.995;entryDx=0;entryDy=0;entryPerimeter=0;endArrow=diamond;endFill=0;" parent="WIyWlLk6GJQsqaUBKTNV-1" source="aXFTtsicoxvOmSbVlnEq-7" target="GC1noQBbDsBjb6JdeGm3-12" edge="1">
          <mxGeometry relative="1" as="geometry">
            <Array as="points">
              <mxPoint x="654" y="670" />
              <mxPoint x="654" y="670" />
            </Array>
          </mxGeometry>
        </mxCell>
        <mxCell id="_q9LBVFp5hoLvUS48kMk-12" style="edgeStyle=orthogonalEdgeStyle;rounded=0;orthogonalLoop=1;jettySize=auto;html=1;entryX=0.897;entryY=-0.02;entryDx=0;entryDy=0;entryPerimeter=0;endArrow=none;endFill=0;startArrow=diamondThin;startFill=0;" parent="WIyWlLk6GJQsqaUBKTNV-1" source="GC1noQBbDsBjb6JdeGm3-33" target="aXFTtsicoxvOmSbVlnEq-7" edge="1">
          <mxGeometry relative="1" as="geometry" />
        </mxCell>
        <mxCell id="_q9LBVFp5hoLvUS48kMk-13" style="edgeStyle=orthogonalEdgeStyle;rounded=0;orthogonalLoop=1;jettySize=auto;html=1;entryX=0.206;entryY=-0.013;entryDx=0;entryDy=0;entryPerimeter=0;endArrow=diamondThin;endFill=1;startArrow=none;startFill=0;" parent="WIyWlLk6GJQsqaUBKTNV-1" source="_q9LBVFp5hoLvUS48kMk-1" target="aXFTtsicoxvOmSbVlnEq-7" edge="1">
          <mxGeometry relative="1" as="geometry" />
        </mxCell>
        <mxCell id="_q9LBVFp5hoLvUS48kMk-14" style="edgeStyle=orthogonalEdgeStyle;rounded=0;orthogonalLoop=1;jettySize=auto;html=1;entryX=0.403;entryY=-0.013;entryDx=0;entryDy=0;entryPerimeter=0;endArrow=none;endFill=0;startArrow=diamondThin;startFill=1;" parent="WIyWlLk6GJQsqaUBKTNV-1" source="GC1noQBbDsBjb6JdeGm3-37" target="aXFTtsicoxvOmSbVlnEq-7" edge="1">
          <mxGeometry relative="1" as="geometry" />
        </mxCell>
        <mxCell id="_q9LBVFp5hoLvUS48kMk-16" value="Gestion_Mesas" style="swimlane;fontStyle=1;align=center;verticalAlign=top;childLayout=stackLayout;horizontal=1;startSize=26;horizontalStack=0;resizeParent=1;resizeParentMax=0;resizeLast=0;collapsible=1;marginBottom=0;whiteSpace=wrap;html=1;fillColor=#fff2cc;strokeColor=#d6b656;" parent="WIyWlLk6GJQsqaUBKTNV-1" vertex="1">
          <mxGeometry x="827" y="760" width="170" height="140" as="geometry" />
        </mxCell>
        <mxCell id="_q9LBVFp5hoLvUS48kMk-17" value="+mesas:list&amp;lt;Mesa&amp;gt;" style="text;strokeColor=none;fillColor=none;align=left;verticalAlign=top;spacingLeft=4;spacingRight=4;overflow=hidden;rotatable=0;points=[[0,0.5],[1,0.5]];portConstraint=eastwest;whiteSpace=wrap;html=1;" parent="_q9LBVFp5hoLvUS48kMk-16" vertex="1">
          <mxGeometry y="26" width="170" height="34" as="geometry" />
        </mxCell>
        <mxCell id="_q9LBVFp5hoLvUS48kMk-18" value="" style="line;strokeWidth=1;fillColor=none;align=left;verticalAlign=middle;spacingTop=-1;spacingLeft=3;spacingRight=3;rotatable=0;labelPosition=right;points=[];portConstraint=eastwest;strokeColor=inherit;" parent="_q9LBVFp5hoLvUS48kMk-16" vertex="1">
          <mxGeometry y="60" width="170" height="10" as="geometry" />
        </mxCell>
        <mxCell id="_q9LBVFp5hoLvUS48kMk-19" style="edgeStyle=orthogonalEdgeStyle;rounded=0;orthogonalLoop=1;jettySize=auto;html=1;exitX=1;exitY=0.5;exitDx=0;exitDy=0;" parent="_q9LBVFp5hoLvUS48kMk-16" source="_q9LBVFp5hoLvUS48kMk-17" target="_q9LBVFp5hoLvUS48kMk-17" edge="1">
          <mxGeometry relative="1" as="geometry" />
        </mxCell>
        <mxCell id="_q9LBVFp5hoLvUS48kMk-20" value="&lt;div style=&quot;&quot;&gt;+visualizar_mesas()&lt;/div&gt;&lt;div style=&quot;&quot;&gt;+crear_mesa()&lt;/div&gt;&lt;div style=&quot;&quot;&gt;*agregar_mesa()&lt;/div&gt;" style="text;html=1;align=left;verticalAlign=middle;whiteSpace=wrap;rounded=0;" parent="_q9LBVFp5hoLvUS48kMk-16" vertex="1">
          <mxGeometry y="70" width="170" height="70" as="geometry" />
        </mxCell>
        <mxCell id="_q9LBVFp5hoLvUS48kMk-21" value="Gestion_Pedidos" style="swimlane;fontStyle=1;align=center;verticalAlign=top;childLayout=stackLayout;horizontal=1;startSize=26;horizontalStack=0;resizeParent=1;resizeParentMax=0;resizeLast=0;collapsible=1;marginBottom=0;whiteSpace=wrap;html=1;fillColor=#fff2cc;strokeColor=#d6b656;" parent="WIyWlLk6GJQsqaUBKTNV-1" vertex="1">
          <mxGeometry x="370" y="950" width="170" height="110" as="geometry" />
        </mxCell>
        <mxCell id="_q9LBVFp5hoLvUS48kMk-22" value="+pedidos_pendientes:list&amp;lt;Pedido&amp;gt;" style="text;strokeColor=none;fillColor=none;align=left;verticalAlign=top;spacingLeft=4;spacingRight=4;overflow=hidden;rotatable=0;points=[[0,0.5],[1,0.5]];portConstraint=eastwest;whiteSpace=wrap;html=1;" parent="_q9LBVFp5hoLvUS48kMk-21" vertex="1">
          <mxGeometry y="26" width="170" height="24" as="geometry" />
        </mxCell>
        <mxCell id="_q9LBVFp5hoLvUS48kMk-23" value="" style="line;strokeWidth=1;fillColor=none;align=left;verticalAlign=middle;spacingTop=-1;spacingLeft=3;spacingRight=3;rotatable=0;labelPosition=right;points=[];portConstraint=eastwest;strokeColor=inherit;" parent="_q9LBVFp5hoLvUS48kMk-21" vertex="1">
          <mxGeometry y="50" width="170" height="10" as="geometry" />
        </mxCell>
        <mxCell id="_q9LBVFp5hoLvUS48kMk-24" style="edgeStyle=orthogonalEdgeStyle;rounded=0;orthogonalLoop=1;jettySize=auto;html=1;exitX=1;exitY=0.5;exitDx=0;exitDy=0;" parent="_q9LBVFp5hoLvUS48kMk-21" source="_q9LBVFp5hoLvUS48kMk-22" target="_q9LBVFp5hoLvUS48kMk-22" edge="1">
          <mxGeometry relative="1" as="geometry" />
        </mxCell>
        <mxCell id="_q9LBVFp5hoLvUS48kMk-25" value="&lt;div style=&quot;&quot;&gt;+crear_pedido()&lt;/div&gt;&lt;div style=&quot;&quot;&gt;+cancelar_pedido()&lt;/div&gt;&lt;div style=&quot;&quot;&gt;+visualizar_pedido()&lt;/div&gt;" style="text;html=1;align=left;verticalAlign=middle;whiteSpace=wrap;rounded=0;" parent="_q9LBVFp5hoLvUS48kMk-21" vertex="1">
          <mxGeometry y="60" width="170" height="50" as="geometry" />
        </mxCell>
        <mxCell id="AwK1PLA9xHQt3RoQHDYn-6" style="edgeStyle=orthogonalEdgeStyle;rounded=0;orthogonalLoop=1;jettySize=auto;html=1;entryX=0;entryY=0.5;entryDx=0;entryDy=0;dashed=1;endArrow=open;endFill=0;" parent="WIyWlLk6GJQsqaUBKTNV-1" source="GC1noQBbDsBjb6JdeGm3-2" target="_q9LBVFp5hoLvUS48kMk-22" edge="1">
          <mxGeometry relative="1" as="geometry">
            <mxPoint x="580" y="43" as="targetPoint" />
            <Array as="points">
              <mxPoint x="150" y="43" />
              <mxPoint x="150" y="988" />
            </Array>
          </mxGeometry>
        </mxCell>
        <mxCell id="AwK1PLA9xHQt3RoQHDYn-7" style="edgeStyle=orthogonalEdgeStyle;rounded=0;orthogonalLoop=1;jettySize=auto;html=1;entryX=0.002;entryY=0.125;entryDx=0;entryDy=0;entryPerimeter=0;dashed=1;endArrow=open;endFill=0;" parent="WIyWlLk6GJQsqaUBKTNV-1" source="GC1noQBbDsBjb6JdeGm3-10" target="_q9LBVFp5hoLvUS48kMk-20" edge="1">
          <mxGeometry relative="1" as="geometry" />
        </mxCell>
      </root>
    </mxGraphModel>
  </diagram>
</mxfile>
